#!OML:ASF E:\Style4\Style4.ASF
:FULLY-SPECIFIED
:DEGREES
2639
root 1.97608 16.5856 -1.14904 7.61467 -32.8526 1.56122
lowerback 23.7027 -0.634877 -2.20682
upperback 11.0881 -1.55225 0.715825
thorax -0.942679 -1.00267 2.39326
lowerneck 6.02812 -2.74828 -5.69288
upperneck -11.1198 -4.0261 2.94482
head -4.13649 -1.94222 2.03978
rclavicle 1.03318e-013 -3.5334e-014
rhumerus 19.8263 6.58023 -80.145
rradius 125.054
rwrist 24.518
rhand 20.5845 -4.24364
rfingers 7.12502
rthumb 45.0792 -27.7119
lclavicle 1.03318e-013 -3.5334e-014
lhumerus 37.3128 -22.0696 71.4324
lradius 121.376
lwrist -11.3387
lhand 14.7351 39.9413
lfingers 7.12502
lthumb 39.6022 65.2861
rfemur -45.6573 17.2666 7.41511
rtibia 54.0271
rfoot -19.6944 -0.969408
rtoes -21.0232
lfemur -38.5478 19.6254 -30.9219
ltibia 58.9992
lfoot -34.3972 17.6585
ltoes -6.95393
2640
root 1.98158 16.5884 -1.13833 7.55065 -33.0935 1.67975
lowerback 23.7018 -0.58381 -2.28942
upperback 11.0948 -1.50598 0.722169
thorax -0.934615 -0.984079 2.43614
lowerneck 6.03803 -2.76451 -5.57466
upperneck -11.1685 -4.04658 2.86117
head -4.15638 -1.95218 1.9971
rclavicle 1.33403e-014 -2.34939e-014
rhumerus 19.8482 6.64321 -80.2028
rradius 124.977
rwrist 24.5754
rhand 20.5853 -4.08008
rfingers 7.12502
rthumb 45.0799 -27.5481
lclavicle 1.33403e-014 -2.34939e-014
lhumerus 37.3078 -22.0466 71.4293
lradius 121.374
lwrist -11.3722
lhand 14.7499 39.8545
lfingers 7.12502
lthumb 39.6162 65.1952
rfemur -45.6981 17.3954 7.23721
rtibia 54.0091
rfoot -19.7326 -0.829797
rtoes -20.9989
lfemur -38.4786 19.8184 -31.0901
ltibia 58.9226
lfoot -34.4653 17.6239
ltoes -6.55132
2641
root 1.9861 16.5905 -1.13189 7.49619 -33.261 1.78045
lowerback 23.735 -0.604323 -2.21821
upperback 11.0942 -1.52277 0.644167
thorax -0.955429 -0.987625 2.31657
lowerneck 6.00562 -2.74505 -5.46214
upperneck -11.1449 -4.01199 2.81274
head -4.14857 -1.9371 1.96148
rclavicle -4.928e-014 1.0312e-015
rhumerus 19.822 6.72668 -80.4019
rradius 124.949
rwrist 24.6444
rhand 20.5879 -4.03246
rfingers 7.12502
rthumb 45.0824 -27.4995
lclavicle -4.928e-014 1.0312e-015
lhumerus 37.3083 -22.0272 71.2858
lradius 121.36
lwrist -11.2956
lhand 14.7078 39.8188
lfingers 7.12502
lthumb 39.5765 65.1712
rfemur -45.7401 17.4745 7.09681
rtibia 53.9992
rfoot -19.7278 -0.649612
rtoes -20.7526
lfemur -38.4357 19.9758 -31.2315
ltibia 58.8603
lfoot -34.5274 17.6322
ltoes -6.46679
2642
root 1.98872 16.5891 -1.12773 7.5181 -33.3635 1.83308
lowerback 23.7021 -0.628257 -2.20432
upperback 11.0881 -1.54872 0.691055
thorax -0.943594 -1.00168 2.36439
lowerneck 5.95596 -2.70531 -5.62672
upperneck -11.0673 -3.9714 2.81776
head -4.11522 -1.91129 1.98544
rclavicle -7.81721e-014 6.70774e-014
rhumerus 19.7946 6.90525 -80.4133
rradius 124.998
rwrist 24.5693
rhand 20.5783 -4.2229
rfingers 7.12502
rthumb 45.0735 -27.6935
lclavicle -7.81721e-014 6.70774e-014
lhumerus 37.2778 -21.933 71.3264
lradius 121.302
lwrist -11.2759
lhand 14.6661 39.7566
lfingers 7.12502
lthumb 39.5373 65.1205
rfemur -45.8437 17.5451 6.98871
rtibia 54.0001
rfoot -19.7045 -0.537951
rtoes -20.2973
lfemur -38.4721 20.0759 -31.3298
ltibia 58.8109
lfoot -34.6046 17.6084
ltoes -6.52779
2643
root 1.99098 16.5892 -1.12324 7.56399 -33.4725 1.91434
lowerback 23.6317 -0.632462 -2.16476
upperback 11.0606 -1.54414 0.689984
thorax -0.941402 -0.997227 2.33829
lowerneck 6.00752 -2.71052 -5.7942
upperneck -11.0727 -3.98211 2.96283
head -4.11833 -1.91787 2.05841
rclavicle 2.52084e-014 1.21756e-015
rhumerus 19.7505 6.94058 -80.4616
rradius 125.044
rwrist 24.5179
rhand 20.5342 -4.24305
rfingers 7.12502
rthumb 45.0324 -27.7298
lclavicle 2.52084e-014 1.21756e-015
lhumerus 37.2386 -21.9425 71.2915
lradius 121.337
lwrist -11.2505
lhand 14.7547 39.863
lfingers 7.12502
lthumb 39.6207 65.2023
rfemur -45.9893 17.585 6.8491
rtibia 53.9987
rfoot -19.6632 -0.525054
rtoes -20.2964
lfemur -38.5539 20.1679 -31.4718
ltibia 58.752
lfoot -34.5942 17.6449
ltoes -6.63884
2644
root 1.9913 16.5925 -1.11903 7.52382 -33.577 1.99008
lowerback 23.6317 -0.630991 -2.08471
upperback 11.0785 -1.52928 0.637975
thorax -0.926939 -0.986258 2.23303
lowerneck 5.97493 -2.74959 -5.75417
upperneck -11.0533 -4.02414 3.00505
head -4.10476 -1.94288 2.06585
rclavicle 9.0447e-015 2.63887e-014
rhumerus 19.767 6.86884 -80.5416
rradius 125.083
rwrist 24.4605
rhand 20.69 -4.30186
rfingers 7.12502
rthumb 45.1773 -27.7312
lclavicle 9.0447e-015 2.63887e-014
lhumerus 37.2792 -21.987 71.1364
lradius 121.398
lwrist -11.2106
lhand 14.8598 40.0028
lfingers 7.12502
lthumb 39.7196 65.3128
rfemur -46.0123 17.655 6.74813
rtibia 53.9911
rfoot -19.6565 -0.490951
rtoes -20.3076
lfemur -38.5182 20.3066 -31.565
ltibia 58.6806
lfoot -34.637 17.5597
ltoes -6.4043
2645
root 1.99038 16.5972 -1.11297 7.41725 -33.6467 2.08784
lowerback 23.6557 -0.654376 -2.00879
upperback 11.1179 -1.54866 0.569577
thorax -0.898982 -0.9926 2.12076
lowerneck 6.02225 -2.74099 -5.62484
upperneck -11.1073 -4.00932 2.94131
head -4.13378 -1.93678 2.02663
rclavicle -5.27028e-014 2.17669e-014
rhumerus 19.7791 6.84108 -80.6669
rradius 125.099
rwrist 24.4587
rhand 20.8424 -4.3323
rfingers 7.12502
rthumb 45.319 -27.7051
lclavicle -5.27028e-014 2.17669e-014
lhumerus 37.3375 -21.9779 70.985
lradius 121.418
lwrist -11.1173
lhand 14.838 40.0506
lfingers 7.12502
lthumb 39.6992 65.3667
rfemur -45.9375 17.7204 6.65133
rtibia 53.9728
rfoot -19.6821 -0.473957
rtoes -20.4112
lfemur -38.3898 20.4277 -31.6554
ltibia 58.6008
lfoot -34.6571 17.5253
ltoes -6.45124
2646
root 1.98833 16.5994 -1.10842 7.33855 -33.6988 2.12804
lowerback 23.7938 -0.633973 -1.98434
upperback 11.1001 -1.51984 0.601229
thorax -0.986489 -0.977348 2.13808
lowerneck 6.04301 -2.72492 -5.61799
upperneck -11.1222 -3.99267 2.90072
head -4.14365 -1.9264 2.01297
rclavicle 2.47238e-014 -5.93869e-015
rhumerus 19.7443 6.82355 -80.6999
rradius 125.058
rwrist 24.4977
rhand 20.9008 -4.08707
rfingers 7.12502
rthumb 45.3733 -27.4381
lclavicle 2.47238e-014 -5.93869e-015
lhumerus 37.351 -21.9823 71.0181
lradius 121.396
lwrist -11.0465
lhand 14.8747 40.0297
lfingers 7.12502
lthumb 39.7337 65.3355
rfemur -45.86 17.7896 6.61478
rtibia 53.9561
rfoot -19.7019 -0.474256
rtoes -20.3958
lfemur -38.2805 20.5411 -31.6831
ltibia 58.5468
lfoot -34.6383 17.4774
ltoes -6.55416
2647
root 1.98491 16.5989 -1.1069 7.3576 -33.7231 2.13331
lowerback 23.852 -0.643671 -1.92556
upperback 11.0618 -1.51978 0.620725
thorax -1.05802 -0.974045 2.12783
lowerneck 6.02183 -2.71412 -5.68438
upperneck -11.0811 -3.9769 2.95679
head -4.12567 -1.91933 2.039
rclavicle -4.99446e-014 2.03754e-014
rhumerus 19.6577 6.83821 -80.7451
rradius 125.045
rwrist 24.4842
rhand 20.8912 -3.86861
rfingers 7.12502
rthumb 45.3644 -27.2232
lclavicle -4.99446e-014 2.03754e-014
lhumerus 37.3019 -21.9846 71.0459
lradius 121.355
lwrist -11.1072
lhand 15.0158 39.9731
lfingers 7.12502
lthumb 39.8665 65.2392
rfemur -45.89 17.8268 6.59808
rtibia 53.9564
rfoot -19.6941 -0.455503
rtoes -20.442
lfemur -38.3044 20.6772 -31.7022
ltibia 58.5279
lfoot -34.5865 17.3952
ltoes -6.48066
2648
root 1.98141 16.5988 -1.10629 7.3204 -33.7275 2.19322
lowerback 23.8023 -0.611932 -1.96351
upperback 11.1141 -1.48549 0.679655
thorax -0.974968 -0.962559 2.20241
lowerneck 5.97371 -2.75592 -5.72391
upperneck -11.1059 -4.03697 2.9457
head -4.12209 -1.94677 2.0443
rclavicle -1.79403e-014 7.7526e-014
rhumerus 19.714 6.79201 -80.6871
rradius 124.996
rwrist 24.4844
rhand 20.8874 -3.69534
rfingers 7.12502
rthumb 45.3609 -27.0513
lclavicle -1.79403e-014 7.7526e-014
lhumerus 37.3528 -21.9678 71.0937
lradius 121.334
lwrist -11.1725
lhand 15.0308 39.8511
lfingers 7.12502
lthumb 39.8806 65.1131
rfemur -45.8852 17.8406 6.55096
rtibia 53.9802
rfoot -19.7145 -0.420408
rtoes -20.1737
lfemur -38.2894 20.7927 -31.7559
ltibia 58.5204
lfoot -34.5827 17.3141
ltoes -6.38197
2649
root 1.97631 16.5977 -1.1056 7.35445 -33.7052 2.16474
lowerback 23.7246 -0.633235 -1.839
upperback 11.1641 -1.48682 0.685975
thorax -0.885883 -0.960977 2.1357
lowerneck 5.97371 -2.78544 -5.75894
upperneck -11.1735 -4.07792 2.97775
head -4.1394 -1.9669 2.06284
rclavicle -5.86912e-014 3.23025e-014
rhumerus 19.7903 6.78625 -80.7265
rradius 124.942
rwrist 24.6028
rhand 20.8422 -3.65288
rfingers 7.12502
rthumb 45.3188 -27.0257
lclavicle -5.86912e-014 3.23025e-014
lhumerus 37.4009 -21.9196 71.0044
lradius 121.348
lwrist -11.1464
lhand 14.9849 39.8363
lfingers 7.12502
lthumb 39.8375 65.1112
rfemur -45.9033 17.8581 6.57215
rtibia 54.0043
rfoot -19.7708 -0.348855
rtoes -19.6108
lfemur -38.3219 20.9136 -31.7347
ltibia 58.5372
lfoot -34.5967 17.1868
ltoes -6.30327
2650
root 1.97083 16.5959 -1.10582 7.35362 -33.7092 2.25123
lowerback 23.5207 -0.62921 -1.78718
upperback 11.2458 -1.47089 0.639557
thorax -0.701072 -0.953296 2.0459
lowerneck 6.07528 -2.81324 -5.67567
upperneck -11.3286 -4.11675 2.95503
head -4.20411 -1.98701 2.04896
rclavicle -8.97513e-014 7.69297e-014
rhumerus 19.8428 6.7955 -80.7665
rradius 124.959
rwrist 24.5944
rhand 20.6286 -3.83034
rfingers 7.12502
rthumb 45.1202 -27.2824
lclavicle -8.97513e-014 7.69297e-014
lhumerus 37.5678 -21.9126 70.8563
lradius 121.287
lwrist -11.1462
lhand 14.9623 39.9333
lfingers 7.12502
lthumb 39.8161 65.2145
rfemur -45.9798 17.8638 6.47886
rtibia 54.0313
rfoot -19.7854 -0.382242
rtoes -19.6872
lfemur -38.3749 21.0308 -31.8278
ltibia 58.5338
lfoot -34.6376 16.974
ltoes -5.8563
2651
root 1.96541 16.5968 -1.10627 7.3682 -33.7178 2.2653
lowerback 23.5132 -0.615217 -1.80865
upperback 11.2521 -1.45631 0.672921
thorax -0.689484 -0.948252 2.09027
lowerneck 6.00647 -2.79556 -5.55906
upperneck -11.2772 -4.09513 2.79362
head -4.18421 -1.97245 1.97749
rclavicle 1.46107e-014 -3.23025e-014
rhumerus 19.8525 6.90391 -80.7596
rradius 125.007
rwrist 24.5159
rhand 20.5084 -4.05613
rfingers 7.12502
rthumb 45.0084 -27.5524
lclavicle 1.46107e-014 -3.23025e-014
lhumerus 37.5967 -21.8711 70.8408
lradius 121.244
lwrist -11.141
lhand 14.8722 39.9813
lfingers 7.12502
lthumb 39.7313 65.2878
rfemur -46.0075 17.8809 6.47174
rtibia 54.0217
rfoot -19.7571 -0.393056
rtoes -19.6011
lfemur -38.4197 21.1819 -31.8445
ltibia 58.5428
lfoot -34.6221 16.8656
ltoes -5.982
2652
root 1.95954 16.5995 -1.10764 7.32443 -33.6879 2.30007
lowerback 23.5462 -0.61078 -1.75009
upperback 11.2586 -1.43937 0.6771
thorax -0.700697 -0.937666 2.05825
lowerneck 5.97301 -2.80172 -5.54738
upperneck -11.2178 -4.10604 2.73935
head -4.16166 -1.97583 1.95785
rclavicle -6.37105e-014 3.56818e-014
rhumerus 19.8159 6.84316 -80.796
rradius 125.101
rwrist 24.6001
rhand 20.782 -4.02734
rfingers 7.12502
rthumb 45.2628 -27.4226
lclavicle -6.37105e-014 3.56818e-014
lhumerus 37.5988 -21.9463 70.8302
lradius 121.232
lwrist -11.1166
lhand 14.7439 39.9834
lfingers 7.12502
lthumb 39.6106 65.3257
rfemur -45.9597 17.8724 6.47459
rtibia 54.0157
rfoot -19.7374 -0.419848
rtoes -19.7901
lfemur -38.394 21.2839 -31.8319
ltibia 58.5321
lfoot -34.649 16.6955
ltoes -5.90301
2653
root 1.95346 16.6025 -1.1079 7.2852 -33.6268 2.28798
lowerback 23.6249 -0.620314 -1.64944
upperback 11.2498 -1.43143 0.696843
thorax -0.751165 -0.929678 2.02248
lowerneck 5.97572 -2.81654 -5.5997
upperneck -11.1924 -4.12984 2.75273
head -4.15201 -1.98648 1.97111
rclavicle -8.44835e-015 1.49089e-015
rhumerus 19.789 6.75848 -80.7862
rradius 125.11
rwrist 24.6128
rhand 20.973 -3.9169
rfingers 7.12502
rthumb 45.4404 -27.2409
lclavicle -8.44835e-015 1.49089e-015
lhumerus 37.5904 -21.999 70.8167
lradius 121.205
lwrist -11.0796
lhand 14.6592 39.9578
lfingers 7.12502
lthumb 39.5308 65.3237
rfemur -45.8716 17.8702 6.52819
rtibia 54.022
rfoot -19.7311 -0.470826
rtoes -20.0619
lfemur -38.332 21.4153 -31.7819
ltibia 58.5203
lfoot -34.6127 16.5514
ltoes -5.81732
